<svg xmlns="http://www.w3.org/2000/svg" viewBox="0 0 28.54 28.55"><defs><style>.cls-1{fill:#595c5b;}</style></defs><g id="Camada_2" data-name="Camada 2"><g id="Rodapé"><path class="cls-1" d="M14.27,2.57c3.81,0,4.26,0,5.77.08a7.88,7.88,0,0,1,2.65.5,4.38,4.38,0,0,1,1.64,1.06A4.49,4.49,0,0,1,25.4,5.85a8,8,0,0,1,.49,2.66c.07,1.5.08,2,.08,5.76s0,4.27-.08,5.77a8,8,0,0,1-.49,2.65,4.76,4.76,0,0,1-2.71,2.71,8,8,0,0,1-2.65.49c-1.51.07-2,.08-5.77.08S10,26,8.51,25.89a7.89,7.89,0,0,1-2.65-.49,4.44,4.44,0,0,1-1.65-1.07,4.38,4.38,0,0,1-1.06-1.64A7.88,7.88,0,0,1,2.65,20c-.06-1.5-.08-2-.08-5.77s0-4.26.08-5.76a8,8,0,0,1,.5-2.66A4.46,4.46,0,0,1,4.21,4.21,4.42,4.42,0,0,1,5.86,3.15a7.82,7.82,0,0,1,2.65-.5c1.5-.06,2-.08,5.76-.08m0-2.57C10.4,0,9.91,0,8.39.09A10.62,10.62,0,0,0,4.92.75,6.8,6.8,0,0,0,2.4,2.4,6.88,6.88,0,0,0,.75,4.92,10.36,10.36,0,0,0,.09,8.39C0,9.91,0,10.4,0,14.27s0,4.36.09,5.89a10.3,10.3,0,0,0,.66,3.46A6.83,6.83,0,0,0,2.4,26.15,7.05,7.05,0,0,0,4.92,27.8a10.62,10.62,0,0,0,3.47.66c1.52.07,2,.09,5.88.09s4.36,0,5.89-.09a10.55,10.55,0,0,0,3.46-.66,7.33,7.33,0,0,0,4.18-4.18,10.55,10.55,0,0,0,.66-3.46c.07-1.53.08-2,.08-5.89s0-4.36-.08-5.88a10.62,10.62,0,0,0-.66-3.47A7.14,7.14,0,0,0,26.15,2.4,6.83,6.83,0,0,0,23.62.75,10.55,10.55,0,0,0,20.16.09C18.63,0,18.15,0,14.27,0"/><path class="cls-1" d="M14.27,6.94a7.33,7.33,0,1,0,7.33,7.33,7.33,7.33,0,0,0-7.33-7.33m0,12.09A4.76,4.76,0,1,1,19,14.27,4.76,4.76,0,0,1,14.27,19"/><path class="cls-1" d="M23.6,6.65a1.71,1.71,0,1,1-1.71-1.71A1.71,1.71,0,0,1,23.6,6.65"/></g></g></svg>