<svg xmlns="http://www.w3.org/2000/svg" viewBox="0 0 32.56 22.94"><defs><style>.cls-1{fill:#595c5b;}.cls-2{fill:#fff;}</style></defs><g id="Camada_2" data-name="Camada 2"><g id="Rodapé"><path class="cls-1" d="M31.88,3.58A4.11,4.11,0,0,0,29,.68C26.46,0,16.28,0,16.28,0S6.1,0,3.56.68A4.1,4.1,0,0,0,.68,3.58,43,43,0,0,0,0,11.47a43,43,0,0,0,.68,7.89,4.07,4.07,0,0,0,2.88,2.89c2.54.69,12.72.69,12.72.69s10.18,0,12.72-.69a4.08,4.08,0,0,0,2.88-2.89,43,43,0,0,0,.68-7.89A43,43,0,0,0,31.88,3.58Z"/><polygon class="cls-2" points="12.95 16.31 12.95 6.63 21.46 11.47 12.95 16.31"/></g></g></svg>