<?xml version="1.0" standalone="no"?>
<!DOCTYPE svg PUBLIC "-//W3C//DTD SVG 20010904//EN"
 "http://www.w3.org/TR/2001/REC-SVG-20010904/DTD/svg10.dtd">
<svg version="1.0" xmlns="http://www.w3.org/2000/svg"
 width="200.000000pt" height="60.000000pt" viewBox="0 0 200.000000 60.000000"
 preserveAspectRatio="xMidYMid meet">

<g transform="translate(0.000000,60.000000) scale(0.100000,-0.100000)"
fill="#000000" stroke="none">
<path d="M80 503 c0 -4 16 -65 37 -136 l36 -128 40 3 40 3 38 130 c21 72 39
131 39 133 0 1 -9 2 -19 2 -15 0 -24 -15 -40 -69 -12 -38 -21 -74 -21 -79 0
-6 -4 -13 -9 -16 -4 -3 -19 33 -31 79 l-23 85 -43 0 c-24 0 -44 -3 -44 -7z"/>
<path d="M330 365 l0 -125 40 0 40 0 0 125 0 125 -40 0 -40 0 0 -125z"/>
<path d="M475 465 c-30 -29 -34 -84 -7 -107 9 -9 34 -23 55 -32 40 -16 44 -31
14 -50 -13 -8 -25 -7 -46 6 -32 18 -41 15 -41 -14 0 -36 87 -50 139 -23 16 8
34 28 41 45 20 48 4 81 -50 107 -29 14 -45 28 -45 40 0 19 11 20 58 8 23 -6
27 -4 27 13 0 24 -18 32 -76 32 -34 0 -51 -6 -69 -25z"/>
<path d="M670 365 l0 -125 40 0 40 0 0 125 0 125 -40 0 -40 0 0 -125z"/>
<path d="M848 474 c-80 -43 -76 -189 5 -227 67 -32 159 -14 192 37 40 61 16
162 -46 193 -33 17 -118 15 -151 -3z m100 -23 c30 -19 36 -135 9 -168 -5 -7
-20 -13 -33 -13 -30 0 -44 32 -44 98 0 69 31 107 68 83z"/>
<path d="M1100 365 c0 -118 1 -125 20 -125 18 0 20 7 20 71 l0 72 57 -72 c52
-66 59 -71 95 -71 l38 0 0 125 c0 117 -1 125 -20 125 -17 0 -19 -8 -22 -77
l-3 -77 -59 77 c-53 69 -62 77 -92 77 l-34 0 0 -125z"/>
<path d="M1350 471 c0 -14 8 -21 28 -23 l27 -3 3 -102 3 -103 39 0 40 0 0 105
0 105 30 0 c23 0 30 4 30 20 0 19 -7 20 -100 20 -92 0 -100 -2 -100 -19z"/>
<path d="M1570 365 l0 -125 85 0 c69 0 85 3 85 15 0 11 -11 15 -40 15 l-40 0
0 40 0 40 40 0 c29 0 40 4 40 15 0 11 -11 15 -40 15 -39 0 -40 1 -40 34 0 33
2 35 38 38 25 2 37 8 37 18 0 12 -17 16 -82 18 l-83 3 0 -126z"/>
<path d="M1821 473 c-56 -28 -77 -110 -46 -177 19 -40 45 -56 103 -62 60 -7
102 8 102 37 0 16 -4 19 -17 14 -47 -20 -70 -17 -93 12 -18 23 -21 37 -17 75
2 26 10 54 17 63 14 17 62 20 91 5 16 -9 19 -7 19 14 0 13 -7 27 -16 30 -30
12 -109 5 -143 -11z"/>
<path d="M1005 183 c-257 -9 -678 -75 -875 -137 -62 -20 -40 -19 102 4 237 38
395 52 668 57 349 7 493 -5 1010 -83 35 -6 35 -5 58 51 13 32 22 59 20 60 -8
7 -391 35 -538 40 -318 10 -366 11 -445 8z"/>
</g>
</svg>
