<svg xmlns="http://www.w3.org/2000/svg" viewBox="0 0 38.19 31.43"><defs><style>.cls-1{fill:#a3e600;}</style></defs><g id="Camada_2" data-name="Camada 2"><g id="Alta_demanda" data-name="Alta demanda"><g id="FLIP_1" data-name="FLIP 1"><g id="verso_1" data-name="verso 1"><path class="cls-1" d="M28.75,0,25.5,3.25,25,3.2a5.54,5.54,0,0,0-5.67,1.07l-.06.05-.79.8a5.27,5.27,0,0,0-6.06-.34l-3-3L0,11.22,3.58,14.8a9,9,0,0,0,1.7,4.9,12.49,12.49,0,0,0,1.57,1.9c.73.75,1.48,1.49,2.22,2.23a2.17,2.17,0,0,0,.38,3,2.48,2.48,0,0,0,2.85.67s0,0,0,0c.85,1.27,1.63,1.88,2.47,1.95l1,1a3.27,3.27,0,0,0,3.88.51,2.14,2.14,0,0,0,.91-1c2.13,1.78,3.54,1.82,5.21-.68,0,0,0,0,0,0a2.48,2.48,0,0,0,2.85-.67A2.18,2.18,0,0,0,29,25.42a3.25,3.25,0,0,1-.25-.34,2,2,0,0,0,1.57-.83A2.43,2.43,0,0,0,30.18,21c.39-.38.78-.77,1.16-1.16a12.91,12.91,0,0,0,1.57-1.89A9.23,9.23,0,0,0,34.61,13l3.58-3.58ZM7.42,20.23a8.55,8.55,0,0,1-2.25-3.84,6.4,6.4,0,0,1-.17-1,5.85,5.85,0,0,1,0-.84L1.35,10.93l7.79-7.8,2.5,2.5.17.17v0l1.2.1.08-.19c.48-.33,2.46-1.42,5.09.59l3.5,3.51a.94.94,0,0,1,.27.66.91.91,0,0,1-.28.66l-.23.23a.94.94,0,0,1-1.32,0L16.54,7.79l-.87.61,1,1.13.42.42-1.23,1.23a.7.7,0,0,0-.19.33l-.06.06c-2.4,2.4-4.81,4.8-7.2,7.21A3.66,3.66,0,0,0,7.42,20.23ZM19,30a1.18,1.18,0,0,1-1,.39,2.07,2.07,0,0,1-1.24-.75l-.5-.5a7.59,7.59,0,0,0,1.26-.89,2.25,2.25,0,0,0,.91,1,3.29,3.29,0,0,0,.76.31A.83.83,0,0,1,19,30Zm5.14-.48c-.53.63-1.14.68-1.93,0l-.36-.34a3.65,3.65,0,0,0,.49-.39l1.34-1.3.14.14C24.55,28.29,24.65,28.88,24.14,29.48Zm3.73-1.95c-.54.74-1.36.75-2.1,0l-1.11-1.1c.61-.59,1.22-1.18,1.82-1.78.34.35.69.69,1,1C28.17,26.35,28.28,27,27.87,27.53Zm1.52-4.37a1.26,1.26,0,0,1-1.75.65l-.18-.11c.59-.58,1.16-1.17,1.75-1.75A1.14,1.14,0,0,1,29.39,23.16Zm3.82-10.39a7.73,7.73,0,0,1,0,.84,6.4,6.4,0,0,1-.17,1,8.75,8.75,0,0,1-2.27,3.86c-1.48,1.56-3,3.05-4.55,4.57s-3.19,3.2-4.8,4.78a2,2,0,0,1-1.24.75,1.15,1.15,0,0,1-1-.39A1.39,1.39,0,0,1,19,27a2.67,2.67,0,0,1,.77-1.08c.72-.75,1.46-1.48,2.2-2.22L23,22.6c.37-.39,1.47-1.21.85-1.78s-1.37.49-1.71.83l-1.08,1.07c-1.69,1.65-3.36,3.33-5.09,4.93-.78.73-1.39.67-1.93,0s-.41-1.19.33-1.93L20.11,20c.27-.27.5-.44.55-.85s-.07-.57-.38-.62a1.11,1.11,0,0,0-1.1.46q-3.37,3.38-6.76,6.76a1.28,1.28,0,0,1-2.11,0c-.4-.55-.29-1.18.37-1.84Q14.1,20.47,17.55,17c.37-.37.67-.79.21-1.22s-.82-.05-1.15.29q-2.64,2.66-5.3,5.29a3.08,3.08,0,0,1-.77.63,1.24,1.24,0,0,1-1.74-.65c-.28-.71.08-1.15.53-1.6,2.93-2.92,5.86-5.84,8.76-8.78l1.2,1.2a2.09,2.09,0,0,0,3,0l.23-.23a2.09,2.09,0,0,0,.61-1.48,2,2,0,0,0-.54-1.4L19.89,6.4h0l-.52-.52.71-.72A5.15,5.15,0,0,1,23,4a5.26,5.26,0,0,1,2.79.64l.78-.79L29,1.34l7.8,7.8Z"/></g></g></g></g></svg>