<svg xmlns="http://www.w3.org/2000/svg" viewBox="0 0 34.56 37.73"><defs><style>.cls-1{fill:#a3e600;}</style></defs><g id="Camada_2" data-name="Camada 2"><g id="Alta_demanda" data-name="Alta demanda"><g id="FLIP_2" data-name="FLIP 2"><g id="Frente_2" data-name="Frente 2"><path class="cls-1" d="M20.93,12.44,17.43,15l-3.5-2.57a.4.4,0,0,0-.57,0,.41.41,0,0,0,0,.58L17,15.78v2.73a.41.41,0,0,0,.41.41.41.41,0,0,0,.41-.41V15.79L21.5,13a.41.41,0,0,0,0-.58A.4.4,0,0,0,20.93,12.44Z"/><path class="cls-1" d="M2.76,1.45A4.93,4.93,0,0,0,6.24,9.86h0A4.93,4.93,0,0,0,6.24,0,4.86,4.86,0,0,0,2.76,1.45ZM9.87,4.93A3.64,3.64,0,0,1,8.81,7.49,3.59,3.59,0,0,1,6.25,8.55h0A3.63,3.63,0,1,1,9.87,4.93Z"/><path class="cls-1" d="M.65,17.4H11.84a.65.65,0,0,0,.65-.63c0-.17.11-4.34-2.51-6.73a.65.65,0,0,0-.84,0s-2.92,2.2-5.61,0a.65.65,0,0,0-.84,0A9.25,9.25,0,0,0,0,16.74a.67.67,0,0,0,.19.47A.66.66,0,0,0,.65,17.4Zm2.54-6a5.83,5.83,0,0,0,6.27,0,8.29,8.29,0,0,1,1.7,4.74H1.34A8.29,8.29,0,0,1,3.19,11.37Z"/><path class="cls-1" d="M28.31,9.86h0a4.93,4.93,0,1,0,0-9.86,4.86,4.86,0,0,0-3.48,1.45,4.86,4.86,0,0,0-1.45,3.48A4.93,4.93,0,0,0,28.31,9.86ZM25.75,2.37A3.57,3.57,0,0,1,28.31,1.3a3.64,3.64,0,0,1,3.63,3.63,3.6,3.6,0,0,1-1.07,2.56,3.56,3.56,0,0,1-2.56,1.06h0a3.62,3.62,0,0,1-3.62-3.62A3.56,3.56,0,0,1,25.75,2.37Z"/><path class="cls-1" d="M34.55,16.77c0-.17.12-4.34-2.5-6.73a.65.65,0,0,0-.84,0s-2.92,2.2-5.61,0a.65.65,0,0,0-.84,0,9.25,9.25,0,0,0-2.69,6.72.62.62,0,0,0,.18.47.68.68,0,0,0,.47.19H33.9A.65.65,0,0,0,34.55,16.77ZM23.4,16.1a8.21,8.21,0,0,1,1.86-4.73,5.81,5.81,0,0,0,6.26,0,8.24,8.24,0,0,1,1.71,4.74Z"/><path class="cls-1" d="M17.43,20.33a4.93,4.93,0,1,0,0,9.86h0a4.93,4.93,0,1,0,0-9.86ZM20,27.82a3.6,3.6,0,0,1-2.56,1.06h0A3.62,3.62,0,1,1,20,27.82Z"/><path class="cls-1" d="M11.84,37.73H23a.65.65,0,0,0,.65-.63c0-.18.11-4.34-2.5-6.74a.65.65,0,0,0-.84,0s-2.92,2.19-5.62,0a.66.66,0,0,0-.84,0,9.4,9.4,0,0,0-2.69,6.73.7.7,0,0,0,.19.47A.67.67,0,0,0,11.84,37.73Zm2.54-6a5.85,5.85,0,0,0,6.26,0,8.22,8.22,0,0,1,1.71,4.73H12.52A8.21,8.21,0,0,1,14.38,31.7Z"/></g></g></g></g></svg>