<svg xmlns="http://www.w3.org/2000/svg" viewBox="0 0 42.91 39.83"><defs><style>.cls-1{fill:#84d900;}</style></defs><g id="Camada_2" data-name="Camada 2"><g id="Alta_demanda" data-name="Alta demanda"><g id="FLIP_3" data-name="FLIP 3"><g id="Frente_3" data-name="Frente 3"><path class="cls-1" d="M24.72,16a5,5,0,1,0-6.56,0V39a.78.78,0,0,0,.78.79h5a.78.78,0,0,0,.78-.79Zm-5,22.3V16.9a4.9,4.9,0,0,0,1.72.31,4.85,4.85,0,0,0,1.71-.31V38.26ZM21.44,8.85a3.4,3.4,0,1,1-3.4,3.4A3.41,3.41,0,0,1,21.44,8.85Z"/><path class="cls-1" d="M36.82,0a1.71,1.71,0,0,0-1.16,2.92,12.64,12.64,0,0,1,0,18.17,1.72,1.72,0,0,0-.51,1.23A1.71,1.71,0,0,0,36.82,24h0A1.69,1.69,0,0,0,38,23.54,16.06,16.06,0,0,0,38,.48,1.73,1.73,0,0,0,36.82,0Zm0,22.77h0a.44.44,0,0,1-.44-.45.49.49,0,0,1,.13-.33,13.89,13.89,0,0,0,0-20,.46.46,0,0,1,0-.64.45.45,0,0,1,.32-.14h0a.4.4,0,0,1,.31.13,14.81,14.81,0,0,1,0,21.26A.44.44,0,0,1,36.85,22.77Z"/><path class="cls-1" d="M28.79,18.54a1.69,1.69,0,0,0,.48,1.18,1.66,1.66,0,0,0,1.19.52h0a1.66,1.66,0,0,0,1.17-.47,10.74,10.74,0,0,0,0-15.53,1.71,1.71,0,0,0-1.21-.47A1.7,1.7,0,0,0,29.32,6.7a7.33,7.33,0,0,1,0,10.61A1.74,1.74,0,0,0,28.79,18.54Zm1.39-.32a8.58,8.58,0,0,0,0-12.42A.52.52,0,0,1,30,5.48a.44.44,0,0,1,.13-.32A.42.42,0,0,1,30.49,5h0a.43.43,0,0,1,.31.13,9.47,9.47,0,0,1,0,13.72.48.48,0,0,1-.32.13.5.5,0,0,1-.32-.14.48.48,0,0,1-.13-.32A.43.43,0,0,1,30.18,18.22Z"/><path class="cls-1" d="M6.06,24a1.71,1.71,0,0,0,1.22-.52,1.7,1.7,0,0,0,0-2.4,12.66,12.66,0,0,1,0-18.18A1.7,1.7,0,0,0,4.88.48a16.06,16.06,0,0,0,0,23.06A1.68,1.68,0,0,0,6.06,24Zm0-22.77a.47.47,0,0,1,.33.14.46.46,0,0,1,0,.64,13.89,13.89,0,0,0,0,20,.49.49,0,0,1,.13.33.45.45,0,0,1-.12.31.46.46,0,0,1-.64,0,14.81,14.81,0,0,1,0-21.26A.42.42,0,0,1,6.06,1.25Z"/><path class="cls-1" d="M11.24,19.77a1.66,1.66,0,0,0,1.17.47h0a1.66,1.66,0,0,0,1.19-.52,1.69,1.69,0,0,0,.48-1.18,1.74,1.74,0,0,0-.53-1.23,7.33,7.33,0,0,1,0-10.61,1.71,1.71,0,0,0,.53-1.19,1.72,1.72,0,0,0-1.67-1.74,1.71,1.71,0,0,0-1.21.47,10.74,10.74,0,0,0,0,15.53ZM12.41,5h0a.42.42,0,0,1,.32.14.48.48,0,0,1,.13.32.52.52,0,0,1-.14.32,8.58,8.58,0,0,0,0,12.42.43.43,0,0,1,.14.32.48.48,0,0,1-.13.32.45.45,0,0,1-.64,0,9.47,9.47,0,0,1,0-13.72A.43.43,0,0,1,12.41,5Z"/></g></g></g></g></svg>