<svg xmlns="http://www.w3.org/2000/svg" viewBox="0 0 36.61 30.66"><defs><style>.cls-1{fill:#84d900;}</style></defs><g id="Camada_2" data-name="Camada 2"><g id="Alta_demanda" data-name="Alta demanda"><g id="FLIP_4" data-name="FLIP 4"><g id="Frente_4" data-name="Frente 4"><path class="cls-1" d="M35,23.82a.78.78,0,0,0,.92-.62l.65-3.44a.78.78,0,0,0-.62-.92l-1.33-.25a9.15,9.15,0,0,0-.44-2.14l1.12-.76a.79.79,0,0,0,.21-1.09l-2-2.9a.76.76,0,0,0-.5-.33.75.75,0,0,0-.58.12l-1.12.76a9.32,9.32,0,0,0-1.83-1.2l.25-1.33a.77.77,0,0,0-.62-.91l-3.44-.66a.78.78,0,0,0-.92.62l-.25,1.33a8.78,8.78,0,0,0-2.14.45l-.76-1.13a.8.8,0,0,0-.5-.32.76.76,0,0,0-.59.12l-2.9,2a.81.81,0,0,0-.33.5.83.83,0,0,0,.12.59l.77,1.12A9.14,9.14,0,0,0,17,15.22L15.67,15a.75.75,0,0,0-.58.12.81.81,0,0,0-.33.5L14.1,19a.78.78,0,0,0,.62.91l1.33.25a9.35,9.35,0,0,0,.45,2.15l-1.12.76a.73.73,0,0,0-.33.5.75.75,0,0,0,.12.58l2,2.91a.8.8,0,0,0,.5.32.78.78,0,0,0,.59-.12l1.12-.76a9.55,9.55,0,0,0,1.82,1.2l-.25,1.33a.79.79,0,0,0,.62.92l3.45.65.15,0A.78.78,0,0,0,25.9,30l.26-1.33a9.36,9.36,0,0,0,2.14-.44l.76,1.12a.78.78,0,0,0,1.08.21l2.91-2a.77.77,0,0,0,.2-1.08l-.76-1.12a9.17,9.17,0,0,0,1.2-1.83Zm-2.5-1.43a7.64,7.64,0,0,1-1.58,2.4.77.77,0,0,0-.08,1l.66,1-1.61,1.1-.67-1a.78.78,0,0,0-.94-.28,7.55,7.55,0,0,1-2.81.58.79.79,0,0,0-.75.64L24.51,29,22.6,28.6l.22-1.17a.77.77,0,0,0-.46-.86A7.7,7.7,0,0,1,20,25a.79.79,0,0,0-1-.09l-1,.67L16.9,24l1-.67a.76.76,0,0,0,.28-.94,7.8,7.8,0,0,1-.58-2.81.78.78,0,0,0-.63-.75l-1.17-.23.37-1.91,1.16.22a.78.78,0,0,0,.87-.46A7.53,7.53,0,0,1,19.76,14a.79.79,0,0,0,.08-1l-.67-1L20.78,11l.67,1a.77.77,0,0,0,.94.28,7.81,7.81,0,0,1,2.82-.58A.79.79,0,0,0,26,11l.22-1.17,1.92.37-.23,1.16a.79.79,0,0,0,.47.87,7.64,7.64,0,0,1,2.4,1.58.78.78,0,0,0,1,.08l1-.67,1.1,1.61-1,.67a.78.78,0,0,0-.28.94,7.81,7.81,0,0,1,.59,2.81.78.78,0,0,0,.63.76l1.16.22-.36,1.91-1.17-.22A.78.78,0,0,0,32.52,22.39Z"/><path class="cls-1" d="M26.4,13.89a5.61,5.61,0,0,0-2.1,11h0a6.22,6.22,0,0,0,1.05.1,5.61,5.61,0,0,0,1-11.12Zm2.92,6.27a4,4,0,0,1-4.73,3.21h0a4,4,0,0,1-1.52-7.32,4,4,0,0,1,6.25,4.11Z"/><path class="cls-1" d="M.38,11a.58.58,0,0,0,.66.5l1-.14a7.72,7.72,0,0,0,.84,1.41l-.61.82a.6.6,0,0,0-.11.43.57.57,0,0,0,.23.39l2.11,1.58a.59.59,0,0,0,.82-.12L5.94,15a6.84,6.84,0,0,0,1.6.41l.14,1a.57.57,0,0,0,.23.39.61.61,0,0,0,.35.11h.08L11,16.54a.57.57,0,0,0,.49-.66l-.14-1A6.74,6.74,0,0,0,12.72,14l.82.61a.58.58,0,0,0,.82-.11l1.58-2.12a.59.59,0,0,0-.12-.82L15,11a7.27,7.27,0,0,0,.4-1.59l1-.14A.65.65,0,0,0,16.81,9a.64.64,0,0,0,.11-.44L16.54,6a.59.59,0,0,0-.66-.5l-1,.15A6.56,6.56,0,0,0,14,4.2l.61-.81A.54.54,0,0,0,14.75,3a.57.57,0,0,0-.22-.38L12.41,1A.56.56,0,0,0,12,.87a.68.68,0,0,0-.39.23L11,1.92a6.76,6.76,0,0,0-1.59-.41L9.25.5A.59.59,0,0,0,8.58,0L6,.38a.63.63,0,0,0-.39.23A.6.6,0,0,0,5.47,1l.15,1a7.48,7.48,0,0,0-1.42.84l-.81-.61A.62.62,0,0,0,3,2.17a.55.55,0,0,0-.38.23L1,4.51A.58.58,0,0,0,.87,5a.63.63,0,0,0,.23.38l.82.61a6.84,6.84,0,0,0-.41,1.6l-1,.14a.55.55,0,0,0-.38.23A.52.52,0,0,0,0,8.34ZM2.13,8.63a.6.6,0,0,0,.51-.54A5.61,5.61,0,0,1,3.17,6,.59.59,0,0,0,3,5.28l-.71-.54.87-1.17.72.54a.6.6,0,0,0,.74,0A5.54,5.54,0,0,1,6.46,3a.59.59,0,0,0,.38-.64l-.12-.88,1.45-.21.12.88a.6.6,0,0,0,.55.51,5.71,5.71,0,0,1,2.09.53A.57.57,0,0,0,11.64,3l.54-.71,1.17.87-.53.72a.58.58,0,0,0,0,.74A5.9,5.9,0,0,1,14,6.46a.58.58,0,0,0,.63.38l.89-.12.2,1.45-.88.12a.6.6,0,0,0-.5.55,5.93,5.93,0,0,1-.54,2.09.6.6,0,0,0,.18.72l.72.53-.88,1.17-.71-.53a.57.57,0,0,0-.74,0A5.94,5.94,0,0,1,10.46,14a.58.58,0,0,0-.38.63l.13.89-1.45.2-.13-.88a.6.6,0,0,0-.54-.5A5.82,5.82,0,0,1,6,13.75a.74.74,0,0,0-.25-.05.58.58,0,0,0-.47.23l-.54.72-1.17-.88.54-.71a.6.6,0,0,0,0-.74A5.58,5.58,0,0,1,3,10.46a.59.59,0,0,0-.64-.38l-.88.13L1.25,8.76Z"/><path class="cls-1" d="M8.46,12.68c.2,0,.4,0,.6,0a4.23,4.23,0,1,0-.6,0ZM8,5.45l.43,0a3,3,0,1,1-.43,0Z"/></g></g></g></g></svg>