<svg xmlns="http://www.w3.org/2000/svg" viewBox="0 0 20.65 24.05"><defs><style>.cls-1{fill:#84d900;}</style></defs><g id="Camada_2" data-name="Camada 2"><g id="Alta_demanda" data-name="Alta demanda"><g id="FLIP_5" data-name="FLIP 5"><g id="Frente_5" data-name="Frente 5"><path class="cls-1" d="M12.83,12.87a.67.67,0,0,0,.28.06.66.66,0,0,0,.42-.15L20.42,7a.65.65,0,0,0,0-1L13.53.15a.66.66,0,0,0-1.08.5V2.47H.65A.65.65,0,0,0,0,3.12V9.81a.65.65,0,0,0,.65.65h11.8v1.82A.64.64,0,0,0,12.83,12.87ZM1.3,9.16V3.78H13.11a.66.66,0,0,0,.65-.66V2.06L19,6.47l-5.22,4.41V9.81a.65.65,0,0,0-.65-.65Z"/><path class="cls-1" d="M.23,18.08l6.89,5.81a.67.67,0,0,0,.42.16A.63.63,0,0,0,7.81,24a.66.66,0,0,0,.38-.6V21.58H20a.66.66,0,0,0,.65-.66V14.24a.66.66,0,0,0-.65-.66H8.19V11.77a.66.66,0,0,0-.38-.6.64.64,0,0,0-.69.1L.23,17.08a.64.64,0,0,0-.23.5A.66.66,0,0,0,.23,18.08Zm6.66-4.91v1.07a.65.65,0,0,0,.65.65h11.8v5.38H7.54a.65.65,0,0,0-.65.65V22L1.66,17.58Z"/></g></g></g></g></svg>