<svg xmlns="http://www.w3.org/2000/svg" viewBox="0 0 26.45 44.01"><defs><style>.cls-1{fill:#fff;}</style></defs><g id="Camada_2" data-name="Camada 2"><g id="Rede_Viasat" data-name="Rede Viasat"><path class="cls-1" d="M26.08,16.35a13.65,13.65,0,0,0,.37-3.12A13.23,13.23,0,1,0,0,13.23a13.65,13.65,0,0,0,.37,3.12A19.77,19.77,0,0,0,1.82,21.5c1.3,2.73,6.77,11.74,9.28,15.85-3.4.43-5,1.89-5,3.26,0,1.64,2.22,3.4,7.1,3.4s7.09-1.76,7.09-3.4c0-1.37-1.57-2.83-5-3.26,2.51-4.11,8-13.12,9.28-15.85A19.77,19.77,0,0,0,26.08,16.35Zm-7.8,24.26C18.14,41,16.43,42,13.23,42s-5-1-5.06-1.34c.09-.34,1.49-1.18,4.12-1.34,0,.05.05.09.07.1a1,1,0,0,0,.87.49,1,1,0,0,0,.87-.49l.06-.1C16.76,39.45,18.15,40.27,18.28,40.61Zm5.8-24.71s0,.06,0,.08a18.14,18.14,0,0,1-1.28,4.64c-1.31,2.76-7.3,12.59-9.56,16.29C11,33.21,5,23.38,3.66,20.62A18.14,18.14,0,0,1,2.38,16s0-.05,0-.08A10.91,10.91,0,0,1,2,13.23a11.19,11.19,0,1,1,22.37,0A10.91,10.91,0,0,1,24.08,15.9Z"/><path class="cls-1" d="M13.23,5.79a7.1,7.1,0,1,0,7.09,7.1A7.1,7.1,0,0,0,13.23,5.79Zm0,12.15a5.06,5.06,0,1,1,5.05-5.05A5.06,5.06,0,0,1,13.23,17.94Z"/></g></g></svg>