<svg xmlns="http://www.w3.org/2000/svg" viewBox="0 0 36.46 42.6"><defs><style>.cls-1{fill:#fff;}</style></defs><g id="Camada_2" data-name="Camada 2"><g id="Rede_Viasat" data-name="Rede Viasat"><g id="Instalador"><path class="cls-1" d="M14.34,42.6l3.42-4.87a5.35,5.35,0,0,0,2.87.2A5.45,5.45,0,0,0,25,33a17.31,17.31,0,0,0,1.26-1.57q4.83-6.76,9.48-13.66a4.32,4.32,0,0,0-.22-5.15A3,3,0,0,0,34,11.63c1.82-3.15,1.54-5-2.07-6.58a.05.05,0,0,1,0,0,3.23,3.23,0,0,0-1.51-3.54C29,.53,27.57.33,26.16,1.9a5,5,0,0,1-.39.4A2.59,2.59,0,0,0,24.35.45C22.6-.47,21,0,19.69,1.9c-2.58,3.64-5.13,7.3-7.7,11-.19.27-.4.52-.72.94,0,0-.07,0-.07,0,0-1-.06-1.69-.12-2.38A3.72,3.72,0,0,0,7.61,7.84a3.52,3.52,0,0,0-3.56,3.27c-.39,3.15-.76,6.29-1,9.45a17.86,17.86,0,0,0,.44,7L0,32.53Zm6.13-5.46a4.64,4.64,0,1,1,3.62-5.47A4.64,4.64,0,0,1,20.47,37.14ZM4.15,29.26l.33-.46.84-1.2A6.89,6.89,0,0,1,5,26.69a9,9,0,0,1-.21-1,11.22,11.22,0,0,1-.08-2.1c.25-4.06.66-8.11,1-12.16A1.78,1.78,0,0,1,7.52,9.63a1.78,1.78,0,0,1,1.74,1.86c.11,1.49.12,3,.2,4.49,0,.6-.08,1.45.74,1.5a2,2,0,0,0,1.35-.88C14.79,12.06,18,7.49,21.19,2.91c.48-.68,1-1.25,1.95-1A1.63,1.63,0,0,1,24.38,4a4.57,4.57,0,0,1-.64,1.14l-5.65,8.06c-.36.5-.75,1.08-.12,1.55s1.14,0,1.54-.55q3.64-5.24,7.33-10.45c.71-1,1.49-1.29,2.3-.89,1.08.54,1.28,1.6.5,2.73Q26,10.71,22.42,15.84a1.44,1.44,0,0,0-.34,1.52.64.64,0,0,0,.88.36c.52-.16.7-.5,1-.91l6.13-8.73c.79-1.12,1.54-1.38,2.43-.86s1.14,1.33.38,2.51c-1.68,2.6-3.47,5.14-5.22,7.7l-1.15,1.64c-.36.51-1.5,1.79-.69,2.4s1.7-.94,2.11-1.51.78-1.08,1.17-1.63c.78-1.11,1.56-2.24,2.36-3.35a3.65,3.65,0,0,1,1.23-1.24,1.9,1.9,0,0,1,1.6,0A1.56,1.56,0,0,1,35,14.94a2.69,2.69,0,0,1-.69,1.78c-1.68,2.44-3.4,4.86-5.1,7.29-1.54,2.19-3,4.41-4.63,6.57A5.44,5.44,0,1,0,16.4,37l-.21.3-2.53,3.6L1.81,32.6Z"/><path class="cls-1" d="M19.8,32.07a4.48,4.48,0,0,1-.75-.2.94.94,0,0,1-.32-.22l-.06-.11,0-.11a.41.41,0,0,1,0-.11.54.54,0,0,1,0-.22.57.57,0,0,1,.27-.29,1.22,1.22,0,0,1,.34-.12h0a2.11,2.11,0,0,1,.65,0l.24.05.16.05.21.07,0-.17.14-.84-.12,0h0a2.62,2.62,0,0,0-.54-.12h-.29l-.3,0-.18-.87-.92.18.06.31.13.62-.28.16a1.3,1.3,0,0,0-.23.18,1.56,1.56,0,0,0-.51,1.52c.19,1,1,1.24,1.93,1.39a2.29,2.29,0,0,1,.76.26.81.81,0,0,1,.21.2.69.69,0,0,1,.1.25c.08.41-.21.76-.73.87a2.34,2.34,0,0,1-1.26-.11l-.22-.1-.15,1h0l.11.05a2.31,2.31,0,0,0,.64.16,3,3,0,0,0,.73,0l.19.91.93-.19,0-.17-.16-.79a1.75,1.75,0,0,0,1.07-2C21.49,32.73,20.93,32.28,19.8,32.07Zm-1.53-.57a.79.79,0,0,0,.18.39A.79.79,0,0,1,18.27,31.5Z"/></g></g></g></svg>