<svg xmlns="http://www.w3.org/2000/svg" viewBox="0 0 33.44 31.35"><defs><style>.cls-1{fill:#fff;}</style></defs><g id="Camada_2" data-name="Camada 2"><g id="Rede_Viasat" data-name="Rede Viasat"><g id="Distribuidor"><path class="cls-1" d="M5.57,28.6a.93.93,0,0,1-.92.92h-1a.92.92,0,0,1-.92-.92v-2h-1l-.26,0V28.6a2.23,2.23,0,0,0,2.23,2.22h1A2.23,2.23,0,0,0,6.87,28.6v-2H5.57Z"/><path class="cls-1" d="M31.18,26.56v2.57a.92.92,0,0,1-.91.92h-1a.92.92,0,0,1-.91-.92V26.56H27.06v2.57a2.23,2.23,0,0,0,2.22,2.22h1a2.23,2.23,0,0,0,2.22-2.22V26.38a1.73,1.73,0,0,1-.75.18Z"/><path class="cls-1" d="M2.75,22.35v-7.1a.91.91,0,0,1,.86-.94H30.32a.9.9,0,0,1,.86.94v7.1h.56a1.73,1.73,0,0,1,.75.18V15.25A2.21,2.21,0,0,0,30.32,13h-.55V9.72a2.39,2.39,0,0,0,1,.21,1.76,1.76,0,0,0,1.92-1.59V5.61A1.76,1.76,0,0,0,30.75,4a2.39,2.39,0,0,0-1,.21V2.62A2.45,2.45,0,0,0,27.55,0H6.38A2.45,2.45,0,0,0,4.16,2.62V4.19A2.51,2.51,0,0,0,3.24,4a1.83,1.83,0,0,0-2,1.59V8.34a1.83,1.83,0,0,0,2,1.59,2.51,2.51,0,0,0,.92-.17V13H3.61a2.22,2.22,0,0,0-2.17,2.24v7.12l.26,0ZM30.13,5.61c0-.09.23-.29.62-.29s.62.2.62.29V8.34c0,.09-.23.29-.62.29s-.62-.2-.62-.29Zm-24.67-3c0-.71.42-1.32.92-1.32H27.55c.5,0,.92.61.92,1.32V13h-23ZM4,8.34c0,.07-.26.29-.72.29s-.72-.22-.73-.29V5.61c0-.07.26-.29.73-.29s.71.22.72.29Z"/><path class="cls-1" d="M31.74,22.35H1.7l-.26,0A1.71,1.71,0,0,0,0,24v.82a1.71,1.71,0,0,0,1.44,1.68l.26,0h30a1.73,1.73,0,0,0,.75-.18,1.7,1.7,0,0,0,.95-1.52V24a1.7,1.7,0,0,0-.95-1.51A1.73,1.73,0,0,0,31.74,22.35Zm.74,2.51a.74.74,0,0,1-.74.75H1.7A.75.75,0,0,1,1,24.86V24a.75.75,0,0,1,.75-.74h30a.74.74,0,0,1,.74.74Z"/><path class="cls-1" d="M26,3.22H8.58a1.5,1.5,0,0,0-1.5,1.5v5.1a1.5,1.5,0,0,0,1.5,1.5H26a1.5,1.5,0,0,0,1.5-1.5V4.72A1.5,1.5,0,0,0,26,3.22Zm.85,6.6a.85.85,0,0,1-.85.85H8.58a.85.85,0,0,1-.85-.85V4.72a.85.85,0,0,1,.85-.84H26a.85.85,0,0,1,.85.84Z"/><path class="cls-1" d="M8.6,16.38a1.85,1.85,0,1,0,1.85,1.84A1.85,1.85,0,0,0,8.6,16.38Zm0,3a1.2,1.2,0,1,1,1.19-1.2A1.2,1.2,0,0,1,8.6,19.42Z"/><path class="cls-1" d="M26,16.38a1.85,1.85,0,1,0,1.85,1.84A1.85,1.85,0,0,0,26,16.38Zm0,3a1.2,1.2,0,1,1,1.2-1.2A1.2,1.2,0,0,1,26,19.42Z"/></g></g></g></svg>