<svg xmlns="http://www.w3.org/2000/svg" viewBox="0 0 46.96 32.74"><defs><style>.cls-1{fill:#fff;}</style></defs><g id="Camada_2" data-name="Camada 2"><g id="Rede_Viasat" data-name="Rede Viasat"><g id="Visiontec"><path class="cls-1" d="M46.14,13.27H31.93V.81A.81.81,0,0,0,31.12,0H15.85A.81.81,0,0,0,15,.81V6.22H.81A.82.82,0,0,0,0,7V31.93a.81.81,0,0,0,.81.81H46.14a.81.81,0,0,0,.82-.81V14.09A.82.82,0,0,0,46.14,13.27ZM37.27,24.34H40v7.1H37.27Zm8.06,6.77H41V23.85a.49.49,0,0,0-.49-.49H36.78a.49.49,0,0,0-.49.49v7.26H31.92V14.9H45.33ZM1.63,7.85H15V31.11H10.67V23.85a.49.49,0,0,0-.49-.49H6.49a.49.49,0,0,0-.49.49v7.26H1.63ZM7,24.34H9.69v7.1H7ZM30.29,14.09v17H25.61V23.85a.49.49,0,0,0-.49-.49h-3.7a.49.49,0,0,0-.49.49v7.26H16.67V1.63H30.3V14S30.29,14.05,30.29,14.09ZM21.91,31.44v-7.1h2.72v7.1Z"/><path class="cls-1" d="M22.59,4.72H18.94a.49.49,0,0,0-.49.49V8.86a.49.49,0,0,0,.49.49h3.65a.49.49,0,0,0,.49-.49V5.21A.49.49,0,0,0,22.59,4.72Zm-.48,3.66H19.43V5.7h2.68Z"/><path class="cls-1" d="M28.14,4.72H24.49a.49.49,0,0,0-.49.49V8.86a.49.49,0,0,0,.49.49h3.65a.49.49,0,0,0,.49-.49V5.21A.49.49,0,0,0,28.14,4.72Zm-.49,3.66H25V5.7h2.67Z"/><path class="cls-1" d="M22.59,10.7H18.94a.49.49,0,0,0-.49.49v3.65a.49.49,0,0,0,.49.49h3.65a.49.49,0,0,0,.49-.49V11.19A.49.49,0,0,0,22.59,10.7Zm-.48,3.65H19.43V11.68h2.68Z"/><path class="cls-1" d="M28.14,10.7H24.49a.49.49,0,0,0-.49.49v3.65a.49.49,0,0,0,.49.49h3.65a.49.49,0,0,0,.49-.49V11.19A.49.49,0,0,0,28.14,10.7Zm-.49,3.65H25V11.68h2.67Z"/><path class="cls-1" d="M22.59,16.68H18.94a.49.49,0,0,0-.49.49v3.65a.49.49,0,0,0,.49.49h3.65a.49.49,0,0,0,.49-.49V17.17A.49.49,0,0,0,22.59,16.68Zm-.48,3.65H19.43V17.66h2.68Z"/><path class="cls-1" d="M28.14,16.68H24.49a.49.49,0,0,0-.49.49v3.65a.49.49,0,0,0,.49.49h3.65a.49.49,0,0,0,.49-.49V17.17A.49.49,0,0,0,28.14,16.68Zm-.49,3.65H25V17.66h2.67Z"/><path class="cls-1" d="M3.74,15.33H7.39a.49.49,0,0,0,.49-.49V11.19a.49.49,0,0,0-.49-.49H3.74a.49.49,0,0,0-.49.49v3.65A.49.49,0,0,0,3.74,15.33Zm.49-3.65H6.9v2.67H4.23Z"/><path class="cls-1" d="M9.28,15.33h3.65a.49.49,0,0,0,.49-.49V11.19a.49.49,0,0,0-.49-.49H9.28a.49.49,0,0,0-.49.49v3.65A.49.49,0,0,0,9.28,15.33Zm.49-3.65h2.67v2.67H9.77Z"/><path class="cls-1" d="M7.39,21.31a.49.49,0,0,0,.49-.49V17.17a.49.49,0,0,0-.49-.49H3.74a.49.49,0,0,0-.49.49v3.65a.49.49,0,0,0,.49.49ZM4.23,17.66H6.9v2.67H4.23Z"/><path class="cls-1" d="M9.28,21.31h3.65a.49.49,0,0,0,.49-.49V17.17a.49.49,0,0,0-.49-.49H9.28a.49.49,0,0,0-.49.49v3.65A.49.49,0,0,0,9.28,21.31Zm.49-3.65h2.67v2.67H9.77Z"/><path class="cls-1" d="M34,21.31h3.65a.49.49,0,0,0,.49-.49V17.17a.49.49,0,0,0-.49-.49H34a.49.49,0,0,0-.49.49v3.65A.49.49,0,0,0,34,21.31Zm.49-3.65h2.67v2.67H34.52Z"/><path class="cls-1" d="M39.57,21.31h3.65a.49.49,0,0,0,.49-.49V17.17a.49.49,0,0,0-.49-.49H39.57a.49.49,0,0,0-.49.49v3.65A.49.49,0,0,0,39.57,21.31Zm.49-3.65h2.67v2.67H40.06Z"/></g></g></g></svg>