<svg xmlns="http://www.w3.org/2000/svg" viewBox="0 0 32.42 32.39"><defs><style>.cls-1{fill:#fff;}</style></defs><g id="Camada_2" data-name="Camada 2"><g id="Rede_Viasat" data-name="Rede Viasat"><g id="Viasat"><path class="cls-1" d="M15.35,32.39H16.9A16.2,16.2,0,0,0,16.9,0H15.34a16.21,16.21,0,0,0,0,32.38Zm-9.8-5.71a18.22,18.22,0,0,1,3.32-1.91,19.49,19.49,0,0,0,4.62,6.13A15,15,0,0,1,5.55,26.68Zm10,4.32A18.3,18.3,0,0,1,10,24.3a19,19,0,0,1,5.55-1.1Zm0-9a19.79,19.79,0,0,0-6.06,1.21,18.45,18.45,0,0,1-1.29-5.8h7.35Zm0-5.85H8.2a18.7,18.7,0,0,1,1-6,19.82,19.82,0,0,0,6.38,1.35Zm3.13,14.84a19.36,19.36,0,0,0,4.78-6.39,18,18,0,0,1,3.56,1.93A14.91,14.91,0,0,1,18.72,30.94Zm9.17-5.41A19.5,19.5,0,0,0,24,23.39a19.64,19.64,0,0,0,1.29-6h5.85A14.72,14.72,0,0,1,27.89,25.53Zm.47-18a14.81,14.81,0,0,1,2.81,8.61H25.31a19.62,19.62,0,0,0-1-6.24A20.05,20.05,0,0,0,28.36,7.48Zm-.77-1a18.49,18.49,0,0,1-3.74,2.19,19.58,19.58,0,0,0-5.13-7.23A15,15,0,0,1,27.59,6.49Zm-10.75-5a18.57,18.57,0,0,1,5.85,7.62,18.24,18.24,0,0,1-5.85,1.08Zm0,10a19.87,19.87,0,0,0,6.28-1.16,18.81,18.81,0,0,1,.94,5.78H16.84Zm0,5.87H24A18.77,18.77,0,0,1,22.8,23a20.05,20.05,0,0,0-6-1Zm0,5.83a19.07,19.07,0,0,1,5.47.93,18.44,18.44,0,0,1-5.47,6.76ZM15.59,1.39V10.2A18.44,18.44,0,0,1,9.66,8.94,18.34,18.34,0,0,1,15.59,1.39Zm-2.1.1a19.56,19.56,0,0,0-5,7A18.37,18.37,0,0,1,5,6.28,15,15,0,0,1,13.49,1.49ZM4.24,7.25A20,20,0,0,0,8.05,9.61a20.08,20.08,0,0,0-1.11,6.5H1.25A14.78,14.78,0,0,1,4.24,7.25ZM1.3,17.36H7a19.57,19.57,0,0,0,1.39,6.26,19.33,19.33,0,0,0-3.66,2.13A14.79,14.79,0,0,1,1.3,17.36Z"/></g></g></g></svg>